<?xml version="1.0" standalone="no"?>
<!DOCTYPE svg PUBLIC "-//W3C//DTD SVG 20010904//EN"
 "http://www.w3.org/TR/2001/REC-SVG-20010904/DTD/svg10.dtd">
<svg version="1.0" xmlns="http://www.w3.org/2000/svg"
 width="320.000000pt" height="320.000000pt" viewBox="0 0 320.000000 320.000000"
 preserveAspectRatio="xMidYMid meet">

<g transform="translate(0.000000,320.000000) scale(0.100000,-0.100000)"
fill="#000000" stroke="none">
<path d="M2929 2662 c-30 -21 -126 -87 -214 -147 -88 -60 -245 -166 -348 -237
-103 -70 -191 -128 -195 -128 -4 0 -30 23 -57 51 -28 28 -86 75 -131 105 -333
222 -767 217 -1094 -14 -72 -51 -170 -140 -170 -154 0 -5 68 -8 152 -7 l152 1
76 38 c131 66 203 81 370 76 165 -4 239 -23 360 -95 61 -37 190 -145 190 -159
0 -4 -127 -6 -283 -4 l-282 3 -230 -287 c-127 -158 -236 -297 -244 -309 -13
-21 -2 -37 223 -319 131 -163 241 -296 244 -296 6 1 413 504 420 519 1 3 -95
5 -213 3 -118 -1 -215 0 -215 3 0 4 12 22 26 41 l26 34 222 0 221 0 113 143
114 142 -153 3 -154 3 -33 -41 c-32 -38 -37 -40 -88 -40 -31 0 -54 4 -54 10 0
6 23 40 52 75 l51 65 221 2 220 3 149 185 c81 102 179 223 217 270 150 186
399 500 396 500 -1 0 -27 -17 -57 -38z"/>
<path d="M719 1976 c-59 -16 -118 -63 -158 -124 -29 -46 -65 -131 -58 -139 2
-2 17 2 34 7 17 6 57 10 89 8 l58 -3 73 -90 c40 -49 77 -90 82 -90 7 0 334
399 357 436 8 14 -422 10 -477 -5z"/>
<path d="M291 1868 c-39 -135 -54 -229 -54 -363 -1 -355 130 -654 397 -904 53
-50 114 -97 119 -90 1 2 19 25 40 51 35 44 46 68 30 68 -5 0 -38 26 -75 58
-175 149 -305 372 -354 603 -25 122 -23 317 5 433 l21 89 -47 63 c-27 35 -51
63 -54 64 -3 0 -16 -33 -28 -72z"/>
<path d="M495 1318 c19 -141 118 -341 228 -463 63 -70 165 -158 177 -153 4 2
36 38 70 82 l62 79 -33 25 c-138 103 -246 267 -289 440 l-11 42 -105 0 -106 0
7 -52z"/>
</g>
</svg>
